# xmcd
#
# Track frame offsets:
#	150
#	20551
#	36885
#	53690
#	68535
#	88346
#	107817
#	125492
#	143059
#	157875
#	168655
#	185126
#	203116
#	217817
#	231976
#
# Disc length: 3327 seconds
#
# Revision: 1
# Processed by: cddbd v1.5.1PL2 Copyright (c) Steve Scherf et al.
# Submitted via: audiograbber 1.83.01
#
DISCID=d30cfd0f
DTITLE=Music Maestro - MM6406
DYEAR=1900
DGENRE=Karaoke
TTITLE0=Jackson, Alan - Remember When
TTITLE1=Jewel, Buddy - Sweet Southern Comfort
TTITLE2=Rascal Flatts - Mayberry
TTITLE3=McBride, Martina - In My Daughter's Eyes
TTITLE4=Keith, Toby - American Soldier
TTITLE5=McGraw, Tim - Watch The Wind Blow By
TTITLE6=Black, Clint - Spend My Time
TTITLE7=Walker, Clay - I Can't Sleep
TTITLE8=Bates, Jeff - I Wanna Make You Cry
TTITLE9=Strait, George - Honk If You Honky Tonk
TTITLE10=Emerson Drive - Last One Standing
TTITLE11=Loveless, Patty - On Your Way Home
TTITLE12=Murphy, David Lee - Loco
TTITLE13=Currington, Billy - I Got A Feeling
TTITLE14=McEntire, Reba - Somebody
EXTD=
EXTT0=
EXTT1=
EXTT2=
EXTT3=
EXTT4=
EXTT5=
EXTT6=
EXTT7=
EXTT8=
EXTT9=
EXTT10=
EXTT11=
EXTT12=
EXTT13=
EXTT14=
PLAYORDER=
